<svg version="1" xmlns="http://www.w3.org/2000/svg" width="1365.333" height="1365.333" viewBox="0 0 1024.000000 1024.000000"><path d="M227.3 1.6c-46.7 5.6-89.4 22.9-126.8 51.2-12.9 9.8-37.9 34.8-47.7 47.7-28.7 38-45.7 80.4-51.3 128-2.3 19.6-2.3 547.4 0 567 5.6 47.6 22.6 90 51.3 128 9.8 12.9 34.8 37.9 47.7 47.7 38 28.7 80.4 45.7 128 51.3 19.6 2.3 547.4 2.3 567 0 47.6-5.6 90-22.6 128-51.3 12.9-9.8 37.9-34.8 47.7-47.7 28.7-38 45.7-80.4 51.3-128 2.3-19.6 2.3-547.4 0-567-5.6-47.6-22.6-90.1-51.3-128-9.8-12.9-34.8-37.9-47.7-47.7-37.8-28.6-80.2-45.6-127.6-51.3-17.8-2.1-551.2-2-568.6.1zM171 113c0 .5-.2 1-.4 1-.3 0-.8-.5-1.1-1-.3-.6-.1-1 .4-1 .6 0 1.1.4 1.1 1zm326.4 37.1c7.8.2-16.5 3.8-28.9 4.3-5.5.2-12 .9-14.5 1.4-6.8 1.5-19.7 2.6-18.5 1.5 1.1-1 8.7-3 15-3.9 2.2-.3 5.7-1 7.8-1.5 2-.5 4.1-.8 4.5-.6.4.2 3.9-.2 7.7-.9 3.9-.7 10.3-1.1 14.4-.9 4.1.3 9.7.5 12.5.6zm20.8.9c3.7 1.1 5.5 2.6 4.4 3.7-.3.3-1.2-.2-2.1-1.1-1.5-1.4-5.2-2.1-9.7-1.7-.9.1-1.9-.3-2.3-.9-.8-1.3 4.8-1.3 9.7 0zm7.3 8c.3.5-.1 1-.9 1-.9 0-1.6-.5-1.6-1 0-.6.4-1 .9-1 .6 0 1.3.4 1.6 1zm41 8l2 .9h-2c-1.1 0-2.7-.4-3.5-.9-1.3-.9-1.3-1 0-.9.8 0 2.4.4 3.5.9zm11.8.9c.4.1.7.6.7 1.2 0 1.1-7.8.3-9.3-1-.6-.6 4.8-.7 8.6-.2zm61.3 16.9c-.4.3-1.4-.2-2.4-1.2-1.6-1.8-1.6-1.8.6-.6 1.3.6 2.1 1.4 1.8 1.8zm6.5 5.9c1.3 1.6 1.2 1.7-.3.4-1-.7-1.8-1.5-1.8-1.7 0-.8.8-.3 2.1 1.3zm7.6 9.5c-.3.8-.6.5-.6-.6-.1-1.1.2-1.7.5-1.3.3.3.4 1.2.1 1.9zm4.8 5.9c-.5.6-5.5 0-5.5-.7 0-.3 1.3-.3 2.9-.2 1.6.1 2.8.5 2.6.9zm-6.5.2c0 .2-1 1.2-2.2 2.3l-2.3 1.9 1.9-2.3c1.8-2.1 2.6-2.7 2.6-1.9zM373 217c0 .5-.5 1-1 1-.6 0-.3 1.1.6 2.5 1.1 1.7 2.5 2.5 4.4 2.5 1.6 0 3 .5 3.2 1.1.2.7 3 1.1 7.1 1.1 3.7 0 6.7.4 6.7.9 0 1.6 2.9 1 4.7-1 2.6-2.6 6.3-3.3 8.1-1.5 1.5 1.6 6.1 1.2 7.2-.6.9-1.5 11.6-2.4 12.4-1.1.4.6 1.9 1.1 3.4 1.1 2.6-.1 2.6-.1.8-1.5-1.5-1.1-1.6-1.5-.5-1.5.8 0 2.4.6 3.4 1.4 1.3.9 2.5 1.1 3.6.5.9-.4 3.5-1.2 5.8-1.8 3.5-.8 4.1-.7 4.1.8 0 .9 1.2 2.9 2.5 4.4 2.5 2.8 2.6 2.8 8 1.7 8.2-1.7 9.4-.3 4.5 5-3.5 3.8-3.7 4.7-1 5.2 1.5.2 1.7.7 1 1.8-.9 1.3-1.1 1.3-2 0-.5-.8-1-1-1-.4s-2.9 1.9-6.4 2.8c-3.5 1-7.6 2.4-9.2 3.3-1.6.8-4.5 1.6-6.4 1.8-6.6.6-15.9 2.7-17.7 4.1-1.7 1.3-1.7 1.3.5 1.4 4.2 0 2 3.2-3.1 4.4l-2.9.7 2.9 2.1c1.5 1.2 3 2.4 3.3 2.6.3.2-1.3 1.9-3.4 3.8-2.6 2.2-5 3.4-7 3.4-5.2.1-12.5 3.3-13.9 6-1 2-2 2.4-4.4 2.3-2-.2-3.3.3-3.7 1.2-.6 1.7-3.6.9-3.6-1 0-1.7-2.5-2.6-3.8-1.3-.6.6-1.8.8-2.7.5-1.3-.5-1.3-1-.3-2.6 1-1.7.8-2.3-1.3-4-1.3-1.1-4.1-2.5-6.2-3.1-2.1-.6-4.1-1.8-4.4-2.6-.3-.7-1.3-1.4-2.3-1.4-1.1 0-2.1-.4-2.4-.9-.8-1.3-5.6-2-6.3-.9-.3.6-.1 1.3.4 1.7 2 1.2 2.4 4.8.7 5.5-.9.3-1.4 1.3-1 2.1.3.8.1 1.7-.4 2-1.1.7 4.1 5.5 5.9 5.5 1.7 0 1.3 2-.5 2.7-.8.3-2 .1-2.7-.6-1.7-1.7-2.5-1.4-4.2 2-1.2 2.2-2.1 2.8-3.5 2.4-2-.6-3.7 1-2 2 1.6 1 1.2 3.2-.6 3.2-.9 0-1.9-.9-2.2-1.9-.2-1-.9-1.8-1.6-1.8-1.4 0-7.7 2.2-9.3 3.3-.6.4-1.4.3-1.8-.3-.3-.6-1.9-.1-3.9 1.2-3.3 2.1-3.3 2.2-1.5 4.2 2.8 2.9 2.4 4.6-1.1 4.3-1.6-.1-3-.8-3-1.5 0-2-1.4-1.4-2.6 1.2-.9 2-.9 2.3.8 1.8 1.4-.3 1.8.1 1.8 2.1 0 1.4.7 3.2 1.5 4.1.8.8 1.5 1.8 1.5 2.1 0 1.1-7-.5-9.5-2.1-2.4-1.5-3.7-1-2.8 1.2.3.9-.1 1.4-1.2 1.4-.9 0-1.4-.4-1-.9.3-.5.1-1.2-.3-1.5-.5-.3-1.4.6-2 1.9-1.1 2.3-1 2.4 1.8 1.8 2.3-.4 3-.2 3 1 0 .8 1.2 1.8 2.7 2.2 1.5.3 3.9 1.5 5.4 2.6 1.5 1 3.1 1.9 3.6 1.9 1.1 0 4.4 6 3.8 7-.7 1.2-7.7.3-8.6-1.2-.6-.8-.3-1.4.7-1.6 3.1-.7.8-3.5-3.8-4.7-4-1-4.8-1-4.8.2 0 .9-1.3 1.3-4 1.3-3.7 0-5.5 1.3-2.8 2.2 1.9.7.1 3.8-2.2 3.8-1.1 0-2-.4-2-.9 0-.4-1.1-.6-2.5-.3-1.5.2-2.5 0-2.5-.7 0-.6.9-1.1 2-1.1 2.3 0 2.6-2.2.5-4-1.2-1-1.7-.8-2.6 1.4-.7 1.4-1.6 2.3-2 2-.5-.3-.9.2-.9 1s-.8 2-1.9 2.5c-1 .6-2.1 1.9-2.4 3-.4 1.7-.1 1.8 2.3 1.1 1.6-.5 3.1-.6 3.4-.3.3.3 1.2 0 2.1-.7.9-.8 1.5-.8 1.5-.2 0 .6-.4 1.3-1 1.7-1.3.8-.1 3.5 1.4 2.9.7-.3 1.3.2 1.3 1.1 0 .8-.4 1.5-.9 1.5s-.6.4-.3 1c1.2 1.9-1.4 1-2.8-1-1-1.4-2-1.8-3.3-1.3-1.6.6-1.7.4-.7-.8 1-1.2.8-1.5-.8-1.6-1.3-.1-1.9.5-1.9 1.9 0 1.7-.4 2-3 1.5-1.9-.4-4.6.1-7.4 1.3l-4.5 1.9-.7-2.1c-.6-1.9-.7-1.9-1.6-.5-.5 1-1.3 1.7-1.9 1.7-1.3 0-5.9-5-5.9-6.4 0-.8-.2-.8-.8 0-.6 1-2.4 1.1-6.6.5-.5 0-.3-.8.5-1.7 1-1.3 1-1.7 0-2.4-.8-.4-1.1-1.2-.7-1.8.3-.5 0-1.5-.8-2.1-1-.8-1.5-.9-1.8-.1-.2.6-1.8-.3-3.7-1.9-2.7-2.4-3.2-3.5-2.7-5.5.4-1.5 1.4-2.6 2.4-2.7 1 0 1.2-.3.4-.6-.6-.2-1-1-.6-1.6.3-.7-.2-.3-1 .7-.9 1.1-1.8 1.8-2 1.5-.5-.5.9-12 1.9-16.1.6-2.4.5-2.6-1.5-2.1-1.7.4-2.1.2-1.8-.8.3-.8 1.3-1.4 2.4-1.4 2.8-.1 4.4-1.4 4.4-3.5 0-2.8-1.5-3.2-5.5-1.6-1.9.8-4.2 1.3-5 1-.8-.4-1.8.1-2.1 1-.3.9-1.2 1.6-1.9 1.6s-1.8.7-2.5 1.5-2 1.5-3 1.5-2 .6-2.3 1.3c-.2.6-2.6 3.8-5.1 7-5.6 6.8-5.2 10 .4 3.8 4.3-4.6 7.3-5.7 4.6-1.6-.9 1.4-2.3 3.6-3.2 5-2.4 3.8-1 4.2 1.7.5 1.9-2.5 6.9-6 8.6-6 .2 0-.4 1.4-1.4 3.1-1.3 2.4-1.5 3.3-.5 3.6 1.5.6 1.6 5.5 0 7.1-.9.9-.9 2.1 0 5 .7 2.2 1.2 5.4 1.2 7.2 0 2.3.4 3.1 1.4 2.7 1.7-.7 3.6 1.1 3.6 3.4 0 .9.6 2.2 1.4 2.8 1 .8 1.2 2.4.8 5.4-.5 3.9-.4 4.1 1.2 2.8 1-.8 1.5-2.3 1.3-3.3-.4-1.4-.2-1.6 1.2-.8 1.2.6 2.2.5 2.9-.2 1.2-1.2 1.3-1.1 1.6 2.4.1.7 1.1 2.1 2.4 3.1 1.2 1 2 2.3 1.6 2.8-.3.6 0 1.7.7 2.6 1.1 1.3 1 1.8-.9 3.4-1.3 1-3 1.5-3.7 1.2-.8-.3-1.5 0-1.5.6s-.5 1.1-1 1.1c-.7 0-.7-.7 0-2.1 1.5-2.7.8-3.3-2.7-2.4-4.4 1.3-4.7 1.2-7-.8-2.1-1.8-2.3-1.9-2.9-.3-.4.9-1.3 1.5-2 1.2-.7-.3-1.6-.1-1.9.4-1 1.6-3.4-.1-3.7-2.8-.5-4-2.3-3.7-4.3.8-1.7 3.7-2.6 4.5-4.9 4.1-1.8-.4-5.7 3.1-7.6 6.9-1.5 3-2.6 4-4.5 4-1.3 0-2.6.3-2.8.8-.8 1.2-6.8.6-7.7-.8-.5-.8-.6-4.3-.3-7.8l.5-6.5-4.1.7c-3.6.5-4.1.4-4.1-1.3 0-1.1.5-2.3 1-2.6.6-.4.8-1 .5-1.5-.3-.5.1-2.8 1-5.2.8-2.4 1.5-5.3 1.5-6.4 0-1.4.6-2.1 1.6-2 1 .1 2.6-2.1 4.4-6.2 1.6-3.4 2.4-6 1.9-5.6-.7.4-.7-.1 0-1.5.7-1.1 1-2.1.7-2.1-.3 0 .6-1.2 1.9-2.6 1.4-1.5 2.5-3.3 2.5-4 0-.8.5-1.4 1.1-1.4.6 0 .8-.7.5-1.6-.7-1.8 1.1-4.7 2.4-3.9 1.2.7 4.2-4.4 3.4-5.7-.5-.7-.3-.8.5-.3.8.4 1.8-.1 2.7-1.4.9-1.2 1.9-1.9 2.4-1.6 1.3.8 6.8-6.3 9.9-13 1.7-3.5 5.9-9.3 9.8-13.5 3.8-4.1 8.9-9.8 11.4-12.7 2.5-2.8 6.1-6.4 8-7.9l3.4-2.8-3.5 4c-1.9 2.2-1.1 1.6 1.8-1.4 2.8-3.1 5.2-5.1 5.2-4.7 0 .5 1.9-1 4.3-3.3 3.1-3 4.6-3.9 5.7-3.2 1.2.8 1 1.4-1.5 4.1-1.7 1.7-4 3.5-5.1 3.9-2.5 1-13.9 14.5-20 23.5-5.8 8.6-5.8 8.6-3.8 7.8 1.4-.5 1.5-.1.9 3.7-.5 3-.4 4.1.4 3.6.6-.4 1.1-1.2 1.1-1.7 0-.6 1.6-2.6 3.7-4.5 2-1.9 3.3-3.7 2.9-4.1-.3-.4-1.2-.1-1.8.5-1.8 1.8-2.8 1.5-2.8-.8 0-1.7.6-2 2.8-1.8 2.3.3 2.7-.1 3-2.5.3-2.5.7-2.8 2.7-2.3 1.3.3 2.7.1 3-.5.4-.6 1.7-.8 2.9-.5 1.4.3 2.5-.1 3.3-1.3.8-1.2 2-1.7 3.6-1.4 1.5.3 2.6-.1 3-1 .4-1.1 0-1.4-1.6-1-2.1.4-2.1.4.3-1.6 1.4-1.1 3.3-2.1 4.2-2.1.9 0 2.5-1 3.5-2.3 1-1.2 3.5-3 5.6-3.9l3.7-1.8-1.6 2.5c-.9 1.3-2.4 2.7-3.5 3-1.7.6-2.8 3.5-1.3 3.5 1 0 7.4-7 7.4-8 0-1.3 8.2-3.3 8.9-2.3.3.5 1.5.8 2.6.8 1.1-.1 3.7-.2 5.8-.3 3-.2 3.7-.6 3.7-2.2 0-2.3 1.3-2.6 2.9-.7.8 1 .7 1.7-.1 2.5-.9.9-.8 1.2.6 1.2 1 0 2-.9 2.3-2 .3-1.1 1.3-2 2.3-2 .9 0 3.1-.7 4.9-1.6 1.8-.9 4.3-1.4 5.6-1.1 1.3.2 2.6 0 2.7-.5.2-.5 4.2-1.2 8.9-1.6 6.4-.6 8.6-.5 8.2.4-.3.7.4 1 2.1.7 1.3-.3 2.6-1.3 2.9-2.3.5-2 5.6-3.3 7.4-1.8.8.6 1.9.6 3.2-.1 2.7-1.5 3.1-1.4 3.1.9 0 1.4.7 2 2.1 2 1.7 0 2-.5 1.7-2.5-.3-1.5-.1-2.5.6-2.5.6 0-.4-.9-2.3-2.1-1.9-1.1-4.2-1.8-5.3-1.6-1.1.3-1.8 0-1.8-.9s1.1-1.4 2.9-1.4c2.8 0 8.1-3.3 8.1-5.1 0-.5-.9-.9-2-.9s-2.3-.7-2.6-1.5c-.4-.8-1.2-1.5-1.9-1.5s-1.8.7-2.5 1.5c-1 1.2-.9 1.5.4 1.5 1 0 1.4.5 1.1 1.1-.4.6-1.3.8-2 .5-.7-.2-2.1.1-3.1.9-1.7 1.2-1.6 1.3 1.1.9 1.7-.2 2.1-.1 1 .2-1.1.4-2.7 1.3-3.7 2.1-2.7 2.4-3.2-.4-.5-3.1 1.3-1.3 2.4-3.6 2.4-5.2.1-6.3 1.1-7.4 6.4-7.4 2.7 0 4.9.4 4.9 1zm-33 9.8c0 1-1.8 3.8-4 6.2-3.9 4.2-4.5 6.9-1.1 5.1 2-1.1 4.7.2 3.6 1.8-.4.8-2.9 1-7.9.5-6.1-.5-7.5-.4-9 1.1-1.2 1.2-2 1.5-2.8.7-1.3-1.3 0-3.5 1.8-2.8 1.7.7 4.1-3.3 2.5-4.3-1-.7 2-2.8 10.9-7.5 5.5-3 6-3.1 6-.8zm-18 1c0 1.3-1.2 2.2-2.2 1.6-1-.6-.1-2.4 1.3-2.4.5 0 .9.4.9.8zm31.1 2.2c1.1 0 1.8.4 1.5.9-.7 1-8.6 1.1-8.6 0 0-1 2.2-1.8 3.8-1.3.8.2 2.3.4 3.3.4zm-56.5 6.9c-.4.6-1.7 1.6-2.9 2.2-1.8.9-2 .9-.9-.2.6-.7 1.2-1.7 1.2-2.2 0-.4-.6-.5-1.2-.2-.7.4-.4-.1.6-.9 2.1-1.7 4.4-.7 3.2 1.3zm68.4 1c-.6 1.2-1.6 2.1-2.3 2.1-.8 0-.9-.3-.1-.8.6-.4 1.4-1.6 1.7-2.6.4-1 1-1.6 1.3-1.3.3.3.1 1.5-.6 2.6zm124.8-1.6c1.1-.2 2.3 0 2.6.6.8 1.2.9 1.2-8.6 1.3-7.9 0-11.3-1.4-5.3-2.2 2.2-.3 5.2-.3 6.7.1s3.6.5 4.6.2zm-181.2 3.1c1.8 1.9 1.8 2.3-.4 3.5-1.5.8-2 .4-2.9-2-.9-2.4-.9-2.9.4-2.9.8 0 2.1.6 2.9 1.4zm304.6 3.8c-.8.8-.9.4-.5-1.3.4-1.3.8-1.8 1.1-1 .2.7-.1 1.8-.6 2.3zm3.8 2.8c-.8.5-2.2.9-3 .9-1 0-.8-.3.5-.9 2.7-1.2 4.3-1.2 2.5 0zm-7.6 2.6c.3.8.2 1.2-.4.9-.6-.3-1-1-1-1.6 0-1.4.7-1.1 1.4.7zm3 6.4c1 1.3.9 1.3-.6.1-1-.7-1.8-2.1-1.7-3 0-1.3.1-1.4.6-.1.3.8 1.1 2.2 1.7 3zm2.1 8c.3.6-.1.7-.9.4-1.8-.7-2.1-1.4-.7-1.4.6 0 1.3.4 1.6 1zM243 295.9c0 .5-.7 1.4-1.5 2.1-1.3 1-1.5.9-1.5-.9 0-1.2.6-2.1 1.5-2.1.8 0 1.5.4 1.5.9zm-34 6.4c0 .2-1 1.2-2.2 2.3l-2.3 1.9 1.9-2.3c1.8-2.1 2.6-2.7 2.6-1.9zm4 1.1c0 .2-.8 1-1.7 1.7-1.6 1.3-1.7 1.2-.4-.4 1.3-1.6 2.1-2.1 2.1-1.3zM328 316c0 .5-.4 1-1 1-.5 0-1-.5-1-1 0-.6.5-1 1-1 .6 0 1 .4 1 1zm8.2 3.9c.8-1.2.9-1.2.6 0-.6 2.2-2.8 2.5-2.7.4 0-1.2.2-1.4.6-.4.5 1.1.7 1.1 1.5 0zm-53.2 25c0 1.4-1.8 2.3-3 1.6-.6-.4-.8-1.1-.5-1.6.8-1.2 3.5-1.2 3.5 0zm-22 12.9c0 1.1-1.2 2.4-2.6 3-2.7 1.3-2.6.6.5-3 1.9-2.2 2.1-2.2 2.1 0zm-84.3 17.8c.1 2.6-1.8 7.5-6.3 16.8-3.5 7.2-6.4 12.6-6.4 12 0-1.9 11.7-32.4 12.5-32.4 0 0 .1 1.6.2 3.6zm341.1 94c-.3 1.8-.5 1.7-2.6-.4-1.2-1.2-2.8-2.2-3.4-2.2-.7 0-.4-.7.7-1.5 1.7-1.4 2.1-1.3 3.8.4 1 1 1.7 2.7 1.5 3.7zm-13.1 10c.2 1.3.1 1.5-.4.4-.3-.8-1.1-1.9-1.7-2.3-.7-.6-.6-.7.4-.4.8.2 1.6 1.2 1.7 2.3zm1.4 7.1c1.3 1.6 1.2 1.7-.3.4-1-.7-1.8-1.5-1.8-1.7 0-.8.8-.3 2.1 1.3zm18.4 49.2c1.1.5 2.5.4 3.2-.1.7-.5 1.7-.7 2.3-.3 1.3.8 1.3 3.5 0 3.5-.5 0-.7 1.3-.3 3 .7 3.7-3.1 8.7-5.3 7-.6-.6-1.6-1-2-.8-.5.1-2.6-.1-4.6-.5-4.2-.9-4.3-2.7 0-4.6 1.8-.9 2.2-1.5 1.3-2-.7-.4-1.4-1.7-1.5-2.7-.5-3.1 2.6-4.2 6.9-2.5zM522 552c0 1.3-1.1 1.3-3 0-1.2-.8-1.1-1 .8-1 1.2 0 2.2.4 2.2 1zm-15.6 8c-.6.6-1 .3-1-1s.4-1.6 1-1c.7.7.7 1.3 0 2zm125.3 20.5c1.4 1.1 1.4 1.2 0 1.8-.9.3-2.3 2.1-3.1 3.9-1.4 3.1-1.5 3.2-2.1 1-.4-1.2-1.1-2.2-1.6-2.2s-1.4-1.1-1.9-2.5c-.7-1.8-1.7-2.5-3.5-2.5-3 0-3.1-.4-.7-2.8 1-1 3.2-1.7 5.6-1.7 2.1 0 4.1-.5 4.4-1 .4-.6.9.3 1 2 .2 1.6 1.1 3.4 1.9 4zm-19.4 9.2c-.7.2-1.9.2-2.5 0-.7-.3-.2-.5 1.2-.5s1.9.2 1.3.5zM624 591c1.3.8 1.3 1-.2 1-.9 0-2-.5-2.3-1-.8-1.3.5-1.3 2.5 0zm6 2.1c1.5 2.8.5 2.3-1.5-.7-.9-1.5-1.2-2.3-.6-2 .6.4 1.6 1.6 2.1 2.7zm329 .9c0 .5-.5 1-1.1 1-.5 0-.7-.5-.4-1 .3-.6.8-1 1.1-1 .2 0 .4.4.4 1zm-200.6 18.6c.3.8.2 1.2-.4.9-.6-.3-1-1-1-1.6 0-1.4.7-1.1 1.4.7zM445.3 625c.3 1.3-.2 2.5-1.6 3.5-2.4 1.7-5.7 2-5.7.5 0-.6-.9-1-1.9-1-2.7 0-3.6-3.1-1.5-4.7 1-.7 2.4-1.3 3.1-1.3.7 0 1.3-.4 1.3-.9 0-1.7 5.8 1.9 6.3 3.9zm4 1c0 1.8.5 3 1.4 3 1.5 0 1.8 2.6.3 3.5-.5.3-.7 0-.4-.8.3-.8-.2-1.7-1.1-2.1-1-.4-1.5-1.2-1.1-2.1.3-.8.1-2.8-.5-4.3-.8-2.1-.8-2.4.2-1.5.7.7 1.2 2.6 1.2 4.3zm344 4.5c-.3.9-.8 1.4-1 1.1-.3-.3-.2-.9.2-1.5.9-1.6 1.5-1.3.8.4zM446.5 632c-1 1.1-2.2 2-2.8 2-.5 0 .1-.9 1.4-2 3.1-2.5 3.7-2.5 1.4 0zm342.8 2c-.3 1.2-.8 1.9-1.1 1.6-.5-.6.5-3.6 1.2-3.6.2 0 .2.9-.1 2zm-319.5 1.1c.3 1.2.2 1.2-.7-.1-1.3-1.9-2.4-.7-2.5 2.7-.1 2.3-.6 2.9-2.9 3.1-1.9.2-2.9-.2-3.4-1.5-.4-1-1.1-2.1-1.6-2.4-2.1-1.4.6-3.1 3.8-2.5 2 .4 3.6.2 4-.4.9-1.4 2.8-.8 3.3 1.1zM476 709c-.8.5-2.2.9-3 .9-1 0-.8-.3.5-.9 2.7-1.2 4.3-1.2 2.5 0zm156.2 4.5c-.2 1.4-.8 2.5-1.3 2.5-1 0-1.2-3.4-.2-4.3 1.3-1.4 2-.6 1.5 1.8zm8.9 2.9c-.1 1.2-5.1 1.8-5.1.6 0-.5.6-1.1 1.3-1.3 1.7-.8 3.8-.4 3.8.7zm-28.6 13.4c-.9 2.3-2.4-.3-1.7-3 .4-1.8.6-1.9 1.4-.4.5 1 .7 2.5.3 3.4zm11.5-2c0 .3-.9 1.6-2.1 2.8-2.3 2.5-1.7 5.3.7 3.3s4.4.7 4.1 5.5c-.2 3.1-.8 4.3-2.5 5.1-1.6.7-2 1.5-1.5 3 .5 1.8.4 1.8-1.1.6-1.5-1.3-1.9-1.3-2.7 0-1.2 1.9-1.1 3.3.2 4.6 1.5 1.5-.6 8.5-3.1 10.1-2 1.2-2.8 5.2-1 5.2 1.8 0 1.1 2.9-.9 4-1.1.5-2.3 1.9-2.6 3-.7 2.1-5.5 2.9-5.5 1 0-.6.3-1 .8-1 .4 0 1.2-.8 1.9-1.9 1-1.5.8-2.2-.8-4-2.5-2.7-3.5-2.6-6.2.3-1.7 1.8-2.7 2.2-4 1.5-1.1-.6-2.4-.6-3.6.1-1.6.8-2.5.5-4.5-1.5-1.7-1.7-2-2.5-1.1-2.5.8 0 1.5-.7 1.5-1.5s-.7-1.5-1.5-1.5-1.5-.5-1.5-1c0-.6.9-1 2-1 1.4 0 2-.7 2-2.4 0-2.5 2.7-8.5 4.5-9.9.6-.4 2.1-1 3.5-1.4 1.3-.3 3.2-1.3 4.1-2.2 2.1-2 5.2-8 5.4-10.3.1-1 .5-2.1.9-2.5.7-.7 1.2-.9 5.1-1.6 1.1-.2 2.1-.9 2.1-1.5.1-.7.2-1.6.3-2.1.2-1.7 7.1-2 7.1-.3zm2 21.2c0 .5-.5 1-1.1 1-.5 0-.7-.5-.4-1 .3-.6.8-1 1.1-1 .2 0 .4.4.4 1zm6 14.3c0 .8-.9 2.2-1.9 3.1-1.8 1.7-2 1.6-2.6-.5-.5-1.4-.2-2.5.6-3 2.1-1.3 3.9-1.1 3.9.4zM595.5 774c.3.5.2 1-.4 1-.5 0-1.3-.5-1.6-1-.3-.6-.2-1 .4-1 .5 0 1.3.4 1.6 1zm-11.5 8.1c0 .6-.4.7-1 .4-.5-.3-1-1.1-1-1.6 0-.6.5-.7 1-.4.6.3 1 1.1 1 1.6z"/><path d="M375.8 229.7c.7.3 1.6.2 1.9-.1.4-.3-.2-.6-1.3-.5-1.1 0-1.4.3-.6.6zM390.8 233.7c.7.3 1.6.2 1.9-.1.4-.3-.2-.6-1.3-.5-1.1 0-1.4.3-.6.6zM390 237.1c-1.2.9-1.2 1 .4.5 2-.7 7.6 1.3 7.6 2.7 0 .5.5.5 1 .2.6-.4.8-1.1.5-1.6-.4-.5-.1-.9.6-.9s1-.2.7-.6c-1.1-1.1-9.3-1.3-10.8-.3zM376.2 241.2c-1.4 1.7 4.5 1.8 7.3.1 1.8-1.1 1.6-1.2-2.1-1.3-2.3 0-4.6.6-5.2 1.2zM415.5 250c-.3.5-.1 1 .4 1 .6 0 1.1-.5 1.1-1 0-.6-.2-1-.4-1-.3 0-.8.4-1.1 1zM295.5 253c-.3.6.1.7.9.4 1.8-.7 2.1-1.4.7-1.4-.6 0-1.3.4-1.6 1zM396.2 261.2c-1.6 1.6-1.5 2.8.3 2.8.8 0 1.5-.6 1.5-1.4 0-.8.6-1.7 1.3-1.9.8-.4.7-.6-.3-.6-.9-.1-2.1.4-2.8 1.1zM275.5 263c.4.6 1.1.8 1.6.5 1.4-.9 1.1-1.5-.7-1.5-.8 0-1.2.5-.9 1zM395.5 266.1c-.4.6-.5 1.2-.2 1.5.2.3.7-.2 1-1.1.7-1.7.1-2-.8-.4zM263.4 276.5c-.9 1.4-1.4 2.8-1.1 3.1.3.3 1.3-.8 2.2-2.5 1.9-3.7 1.2-4.1-1.1-.6zM251.2 295.2c-1.4 1.4-1.6 2.8-.3 2.8.9 0 2.4-3 1.8-3.6-.2-.2-.9.2-1.5.8zM219.7 303.8c-1.8 1.9-4 7.2-3.3 7.9.2.3 1.2-1.1 2.1-3.1 1-2 2.1-3.6 2.5-3.6.4 0 1-.7 1.4-1.5.7-2-.7-1.9-2.7.3zM208.7 308.7c-.4.3-.7 1.1-.7 1.7 0 .6.5.5 1.2-.2.6-.6.9-1.4.7-1.7-.3-.3-.9-.2-1.2.2zM288.9 309.6c-1.2 1.4-1.1 1.6.5 1.3 1.1-.2 2.1-1 2.4-1.7.5-1.7-1.3-1.5-2.9.4zM303 311c0 .5.4 1 .9 1 .6 0 1.3-.5 1.6-1 .3-.6-.1-1-.9-1-.9 0-1.6.4-1.6 1zM293.7 314.7c-1.2 1.1-.8 2.3.7 2.3.7 0 1.9-.7 2.6-1.5 1-1.2.9-1.5-.7-1.5-1.1 0-2.3.3-2.6.7zM278 326.1c0 1.2 4.6 2.5 6.9 2 2.1-.6 2.2-.8.9-1.9-1.5-1.2-7.8-1.4-7.8-.1zM209.6 362.5c-.9 2.6-.7 3.2.5 1.2.6-1 .9-2.1.6-2.3-.2-.3-.7.2-1.1 1.1zM625 581.4c0 .2.7.9 1.5 1.6.9.7 1.5.8 1.5.2 0-.5-.7-1.2-1.5-1.6-.8-.3-1.5-.4-1.5-.2zM615.6 735.9c-.4.7-.5 1.5-.2 1.8.9.9 1.9-.4 1.4-1.8-.4-1.1-.6-1.1-1.2 0zM608.8 754.7c-1.9.5-2.4 1.8-.9 2.7.4.3 1.6-.3 2.6-1.4 1.8-2 1.6-2.2-1.7-1.3z"/></svg>