<svg version="1" xmlns="http://www.w3.org/2000/svg" width="1365.333" height="1365.333" viewBox="0 0 1024.000000 1024.000000"><path d="M235 .6c-1.4.2-6.5.9-11.5 1.5C159.9 9.8 99.9 43.2 57.7 94.5c-29.9 36.3-48.4 79-55.9 129-2 13.3-2 563.7 0 577 9.1 60.3 34.1 109.9 75.8 150.6 40.4 39.3 87.7 62.3 145.9 71.1 13.3 2 563.7 2 577 0 67.8-10.2 123.5-41.3 165.8-92.7 29.9-36.3 48.4-79 55.9-129 2-13.3 2-563.7 0-577-10.2-67.8-41.3-123.5-92.7-165.8-35.4-29.1-74.9-46.6-125-55.4C795.1.7 776.5.6 516 .4 362.8.3 236.4.4 235 .6zM171 113c0 .5-.2 1-.4 1-.3 0-.8-.5-1.1-1-.3-.6-.1-1 .4-1 .6 0 1.1.4 1.1 1zm-107 6c0 .5-.5 1-1.1 1-.5 0-.7-.5-.4-1 .3-.6.8-1 1.1-1 .2 0 .4.4.4 1zm425.5 30c-1.4.6.3.9 5.5 1l7.5.2-12 1.9c-6.6 1-16.3 2.1-21.5 2.4-5.2.2-13.8 1.1-19 1.9-5.2.9-11.3 1.6-13.5 1.5-3.6 0-3.8-.1-1.6-1 4.4-1.7 26.4-5.7 38.6-6.9 6.6-.6 12.7-1.3 13.5-1.5 3.1-.6 4.5-.3 2.5.5zm46.2-.4c-.3.3-1.2.4-1.9.1-.8-.3-.5-.6.6-.6 1.1-.1 1.7.2 1.3.5zm-16.2 2.8c1.9.8 3.5 2 3.5 2.5 0 1.5-.9 1.4-2.6-.4-1.5-1.4-5-2-10.1-1.5-1.3.1-2.3-.3-2.3-.9 0-1.6 7.5-1.3 11.5.3zm6 7.6c.3.5-.1 1-.9 1-.9 0-1.6-.5-1.6-1 0-.6.4-1 .9-1 .6 0 1.3.4 1.6 1zm41 8l2 .9h-2c-1.1 0-2.7-.4-3.5-.9-1.3-.9-1.3-1 0-.9.8 0 2.4.4 3.5.9zm11.8.9c.4.1.7.6.7 1.1 0 1.1-7.9.3-9.3-.9-.6-.6 4.9-.7 8.6-.2zm61.2 16.1c1 1.1 1.4 2 .8 2-.5 0-1.8-.9-2.8-2-1-1.1-1.4-2-.8-2 .5 0 1.8.9 2.8 2zm-270.9 33.6c-.3.8-.2 1.2.4.9.6-.3 1-.1 1 .4 0 .6.6 1 1.3.8.6-.1 1.1.6.9 1.5-.3 1.7 1 2.2 4.7 2 .8 0 2 .7 2.6 1.5.8 1 2 1.4 3.3 1 1.2-.3 2.4-.2 2.6.1.2.4 3.5.7 7.3.7 5.2 0 6.8-.3 6.8-1.4 0-.8.7-1.6 1.5-1.8 1.2-.4 1.2-.3.2.5-2 1.3 1.4 2.5 3.7 1.3 1-.6 2.3-.6 3.1-.1.9.5 2.5.2 4.4-.8 3.5-1.8 3.6-1.8 9-2.8 3.1-.6 4.2-.4 5.2 1 1.4 2 5.1 1.7 4.6-.3-.2-.9.3-1.1 1.5-.6 2.3.9 2.7.9 8.8-.8 5.6-1.6 8.6-1.2 5.9.7-1.4 1.1-1.3 1.4 1 2.9 1.4 1 2.6 2.4 2.6 3.2 0 1.8.1 1.8 6.5.1 2.8-.7 5.6-1.1 6.3-.9 1.9.8 1.4 3.1-.8 3.8-1.1.3-2 1.3-2 2.1s-.4 1.4-1 1.4c-.5 0-1 .8-1 1.9 0 2.5-1.4 3.4-9.5 6-3.8 1.2-7.4 2.6-8 3-1 .8-6.2 1.7-17.5 3-3 .3-5.4 1-5.2 1.6.2.5-.1 1.1-.7 1.3-.6.2-1.1-.1-1.1-.7s-.4-1.1-1-1.1c-2.2 0-.8 1.9 2.3 3 3.1 1.1 3.1 1.2 1.3 2.6-1.1.7-2.8 1.4-3.7 1.4-3.2 0-2.9 1.8.6 4l3.6 2.2-2.3 2.2c-1.4 1.3-3.2 2-4.8 1.8-1.8-.3-2.1-.1-1.2.6 1.1.7 1 1.1-.4 1.6-1.2.5-2.3.1-3.3-1.1-1.3-1.7-1.3-1.7-.7 0 .3 1.1.2 1.6-.5 1.2-.5-.4-1.6-.2-2.3.4-.8.7-1.8 1.1-2.2 1-2.2-.3-5.2 1.5-6.8 4.2-1.5 2.6-2.1 2.9-5.6 2.4-3.1-.4-4-.1-4.3 1.3-.3.9-.5.3-.6-1.5-.1-3-2.1-5.9-2.1-3.1 0 1.2-4.9 4.2-5.7 3.4-1-1 1.1-3.4 2.5-2.8 1.6.5 1.6.5 0-1.1-.9-.9-2.1-1.7-2.7-1.7-.6 0-1.1-.6-1.1-1.3 0-.7-2.4-2.1-5.4-3-3-1-5.7-2.4-6-3.3-.3-.8-1-1.3-1.5-1-.5.3-2.2-.1-3.7-.9-3.9-2-5.4-1.9-5.4.6 0 1.1.3 1.8.8 1.6.4-.3.7.5.7 1.8s-.3 2.1-.6 1.9c-.7-.4-1.9 3.1-1.9 5.8 0 1 .7 1.8 1.5 1.8s1.5.4 1.5 1c0 .5 1.1 1.2 2.5 1.6 3.7.9 1.9 2.6-2.1 1.8-2.6-.5-3.4-.3-3.4.8 0 .8-.9 2.3-2 3.3-1.3 1.2-2 1.4-2 .5 0-.7-.7-1-1.5-.6-.8.3-1.5 0-1.5-.6s-.2-.9-.5-.6c-.3.3-.1 1.7.4 3.2 1.2 2.9.3 3.3-2.8 1.4-1.1-.6-2.6-.8-3.7-.3-1.1.4-3 .9-4.4 1.1-6.7.8-9.1 1.7-10.1 3.5-.8 1.7-.6 2.4 1.2 4 1.4 1.2 1.9 2.3 1.3 2.9-1.3 1.3-5.4.1-5.4-1.7 0-.8-.6-1.3-1.2-1-.7.2-1.3 1.1-1.3 2 0 .9-.9 2.4-2 3.2-1.9 1.6-1.9 1.6.7 1.2 2.2-.3 2.9.1 3.9 2.4.6 1.6 1.5 2.9 2 2.9s.9.5.9 1c0 1.7-7.1.7-8.4-1.1-1.6-2.3-9.8-2.2-9.1.1.3 1.1-.3 1.5-2.1 1.7-1.5 0-3.5 1-4.6 2.1-2 2-2 2 2.2 1.7 3-.2 5-1.1 7.1-3.1 1.6-1.5 2.9-2.2 2.9-1.6 0 .7-.5 1.2-1.2 1.2-2.3 0 2.4 3.8 6.7 5.5 2.5.9 4.5 2.1 4.5 2.6s.7.9 1.5.9c1.4 0 3.8 4 3.9 6.4.1 1.2-4.3 1.5-7.1.5-2.6-1-3.1-2.9-.7-2.9.9 0 1.4-.7 1.2-1.7-.4-2.1-9-4.2-9.6-2.4-.2.6-1.9 1.1-3.8 1.1-3.3 0-4.5 1.2-2.4 2.5 1.7 1.1-.9 3.5-3.7 3.5-1.3 0-2.2-.4-1.9-.9.4-.5-.3-.7-1.4-.4-1.1.3-2 0-2-.6s.7-1.1 1.5-1.1c1.6 0 1.9-.9.9-3.4-.8-2-3.4-2.1-3.4-.2 0 .8-.7 1.6-1.5 2-.8.3-1.5 1.2-1.5 2.1 0 1.2-1.3 2-2.2 1.3-.2-.1-1.3.4-2.5 1-1.2.7-2.3.8-2.5.3-.4-1.2-8 .1-8.5 1.5-.2.6 1.6 1.5 3.9 2 3.7.8 4.5.7 6.1-1.1l1.9-2-.5 2.1c-.3 1.7 0 2 2.4 1.6 1.8-.3 2.9 0 2.9.7s.4 1 .9.7c1.3-.9 2.3 2.6 1.1 3.8-.7.7-1 .6-1-.3 0-.8-.7-1-2.2-.5-1.9.6-2.1.5-1.1-.7s.8-1.5-.8-1.6c-1.3-.1-1.9.5-1.9 1.9 0 1.7-.4 2-3 1.5-1.9-.4-4.6.1-7.4 1.3l-4.5 1.9-.7-2.1c-.6-1.9-.7-1.9-1.6-.5-1.3 2.5-3.2 2.1-5.7-1.2-1.3-1.7-2.9-2.7-3.7-2.4-.8.3-2.5.2-3.9-.1-2.2-.6-2.4-.9-1.5-2.6.8-1.4.8-2 0-2-.6 0-1-.8-.8-1.8.2-1.2-.3-1.6-1.6-1.5-3 .2-7.9-5.3-7.4-8.2.3-1.3.1-2.6-.5-2.8-.7-.2-.6-2.8.2-7.8.7-4 1.4-8.4 1.6-9.5.1-1.2 1.1-3.4 2-4.8 2-3 1-5.1-1.9-4-1.2.5-1.4.9-.6 1.4.8.5.7.9-.4 1.3-.9.4-1.6.3-1.6-.2 0-1.6-5.5-.6-8.7 1.7-1.7 1.2-3.7 2.2-4.5 2.2-2 .1-5.1 2.8-5.4 4.7-.2.9-1.2 2.6-2.4 3.7-1.9 1.9-2 1.9-1.4.3.6-1.7.4-1.7-1.2-.7-2.5 1.5-6.4 7.5-6.4 9.6 0 1.3.3 1.4 1.5.4.8-.7 1.3-1.6 1-2-.3-.4.3-1.4 1.3-2.1 1.5-1.2 1.6-1.2.4.2-1 1.4-1 1.8.2 2.2.7.3 2.8-.9 4.7-2.9 3.9-4 5.8-4.5 3.5-.9-5.2 8-7.3 12.2-6 12.2.8 0 1.4-.7 1.4-1.5 0-2.1 6.7-9.4 9.9-10.8l2.9-1.2-1.6 2.9c-1.4 2.4-1.5 3.2-.4 5 1.1 1.7 1 2.5-.7 5.5-1.2 2-1.6 3.4-.9 3.4.6 0 .8.3.5.6-.3.4-.2 1.4.3 2.4.5.9 1 3.7 1.1 6.3.2 4.1.5 4.5 2.1 3.6 1.5-.8 2-.5 2.7 1.3.5 1.3.7 2.6.5 2.9-.2.4.3 1 1.2 1.3 1.2.5 1.3 1 .6 1.9-1.4 1.6-1.1 5.7.3 5.7.5 0 .4.4-.3.9-1 .6-.9 1 .7 1.4 1.2.3 1.9.2 1.7-.2-.3-.4.4-1.3 1.4-2.1 1-.8 1.7-1.7 1.5-2.1-.3-.4.2-1 1.1-1.3.8-.3 1.2-.2.9.3-.3.5-.1 1.2.4 1.5.4.3.7 2 .5 3.7-.4 3.1-.3 3.2 1.6 1.4 1.8-1.7 1.9-1.6 3.3 1.6 1.4 3.1 1.3 3.5-.5 5.1-1 .9-2.6 1.4-3.3 1.1-.8-.3-1.5 0-1.5.6s-.5 1.1-1 1.1c-.7 0-.7-.7 0-2.1 1.6-2.8.6-3.4-3.3-2.2-3 .9-3.6.7-5.3-1.2-1.4-1.7-2.3-2-3.7-1.3-1 .5-1.5 1.3-1.2 1.8.3.5-.4.7-1.5.5-1.1-.2-2 .1-2 .6 0 .6-.7.3-1.6-.6-.9-.9-1.3-2.3-.9-3.3.9-2.4.7-2.7-1.2-2.7-.9 0-2.6 1.9-4 4.4-2.9 5.6-3.2 5.9-4.3 4.1-.8-1.2-1.3-1.1-3 .8-1.1 1.2-2.5 2.2-3 2.2-.6 0-1 .7-1 1.5s-.9 2.4-2 3.5-2 2.5-2 3.2c0 .6-.3.8-.7.5-.3-.4.6-3 2.1-5.8 2.5-4.5 2.6-4.9.8-3.8-1.2.7-1.8 1.7-1.6 2.1.3.4 0 .8-.5.8-.6 0-1.1.5-1.1 1.2 0 2.2-4.3 5.8-6.9 5.8-3.7 0-5-2.7-4.4-9.3l.4-5.7-4 .5c-4 .5-4.1.4-4.1-2.5 0-3.8 2.9-11 4.4-11 .6 0 .2-.7-.8-1.5-2-1.5-2-1.5 0-3 1-.8 2.4-1.5 3-1.5 1.3 0 5.5-10 4.7-11.3-.4-.6-.1-.7.7-.2 1 .6 1.2.4.7-.9-.4-1.1.1-2.8 1.3-4.4 1.1-1.4 2.9-4.5 4-6.8 2.1-4.9 9.7-13 11.6-12.6.7.1 2.6-1.7 4.2-4 1.6-2.4 3.9-5.1 5.1-6.2 1.1-1 2.4-3.5 2.7-5.5.4-2 1-3.8 1.4-4.1.3-.3 1.3-1.4 2.1-2.6 3.1-4.6 17.3-19.3 18.1-18.8.5.3.8.2.7-.3-.4-2.1.4-3.2 4.4-6.3l4.2-3.3-3 3.4c-1.6 2-1 1.5 1.4-1s4.7-4.6 5-4.6c.3 0 2.5-1.3 4.9-2.9 4.6-3.1 7.3-2.7 3.2.5-7.7 5.9-10.5 8.7-16.2 15.9-3.5 4.4-7.5 9.9-9.1 12.2-1.5 2.4-3.5 5.4-4.5 6.8-1.5 2.3-1.6 2.4 0 1.2 2.6-2.1 4.2-.5 2.4 2.3-1.1 1.6-1.2 2.6-.5 3 .6.4 1.1.5 1.2.4.1-.2 1.6-2.2 3.3-4.4 4-5.2 5.4-7.9 5.4-10.5 0-1.6.6-2 2.8-1.9 1.5.1 3.4-.1 4.3-.5 1-.4 2-.2 2.4.4.5.8 1.1.4 1.9-1.2.9-1.7 1.9-2.2 3.9-2 2.6.3 3.2-.4 2.8-3.5-.1-.6.3-1.4.9-1.8.5-.3 1 .3 1 1.3 0 1.5.5 1.9 2 1.5 1.4-.4 1.7-.9 1.1-1.7-1.7-2 5.7-8.3 10.9-9.2.3 0 2.4-.6 4.8-1.3 3.6-1 4.5-1 5.8.4 1 .9 2.1 1.2 3.2.7.9-.4 3.4-.7 5.4-.5 3.4.2 3.6 0 3.2-2.2-.2-1.4 0-2.5.6-2.5s.8.4.5 1c-.3.5-.1 1 .5 1 .7 0 1 .7.6 1.5-.6 1.7-.4 1.8 1.8.9.9-.3 1.3-1 1-1.5-.3-.5 0-.9.6-.9s3.2-.9 5.7-2.1c2.6-1.2 5.5-1.8 6.8-1.5 1.3.3 2.5.1 2.7-.4.2-.6 4.2-1.4 8.9-1.8 6.4-.6 8.6-.5 8.2.4-.3.7.5 1 2.1.7 1.4-.3 2.7-1.4 3-2.7.3-1.4 1.4-2.1 3.1-2.2 1.4-.1 2.2.2 1.9.8-.9 1.4 3.9-1.4 5.3-3.2 1-1.3 1.1-1.2.6.7-.3 1.2-1.2 2.3-2.2 2.5-1.2.3-1.1.5.6 1 1.4.4 2.1.2 2-.5-.1-.6.6-1.2 1.5-1.4 1.2-.3 1.5.1 1.1 1.6-.4 1.7-.1 2.1 1.7 2.1s2.1-.4 1.6-2.4c-.4-1.5-.1-2.6.7-2.9.7-.3.1-.9-1.5-1.5-1.4-.6-2.9-1.6-3.3-2.1-.4-.8-1.2-.8-2.6-.1-1.3.8-1.9.7-1.9 0 0-1.2.9-1.6 5.8-2.4 2.5-.4 3.1-.3 2.6.7-.6.9-.5.9.7 0 2.7-2.2 2.1-5.6-1.2-7.6-1.7-.9-3.7-1.7-4.4-1.7-2 0-3 2.1-1.4 3.1.7.4 1 1.1.6 1.5-1 1.1-3.4-1.4-4-4.2-.7-4.1 1.3-7.4 4.7-7.4 2.1 0 2.7.4 2.2 1.6zm3.4-.6c0 .5-.5 1-1.1 1-.5 0-.7-.5-.4-1 .3-.6.8-1 1.1-1 .2 0 .4.4.4 1zm-32 9.6c0 1.4-2.6 5-5.9 8.4-2.7 2.8-4.5 3.8-6.9 3.8-2.9.1-3.3-.2-2.9-1.9.4-1.3 0-1.9-1.1-1.9-2.1 0 6.7-6 8.8-6 .8 0 2.4-.7 3.4-1.5 2-1.5 4.6-2 4.6-.9zm-17 1.8c0 .2-.8 1-1.7 1.7-1.6 1.3-1.7 1.2-.4-.4 1.3-1.6 2.1-2.1 2.1-1.3zm26.5 2.6c-.3.5-1.3 1-2.1 1s-1.2-.5-.9-1c.3-.6 1.3-1 2.1-1s1.2.4.9 1zm4.2-.4c-.3.3-1.2.4-1.9.1-.8-.3-.5-.6.6-.6 1.1-.1 1.7.2 1.3.5zm6.3.4c0 .5-.8 1-1.7 1-1.5 0-1.6-.2-.3-1 1.9-1.2 2-1.2 2 0zm-63 4.3c0 .2-1 1.2-2.1 2.3-2.2 1.9-2.2 1.9-1-.4 1-1.8 3.1-3.1 3.1-1.9zm190 1.7c0 .5-2.4 1-5.4 1-3 0-5.8-.5-6.1-1-.4-.6 1.7-1 5.4-1 3.4 0 6.1.4 6.1 1zm5.5 0c.3.6-.4.9-1.9.8-1.3-.1-2.2-.6-2-1 .7-1.1 3.2-1 3.9.2zM306 239.5c0-.6.5-.2 1.1.8.6.9 1.6 1.5 2.2 1.1.7-.3.3.1-.7 1-1.7 1.4-2 1.4-3.2-.2-.7-.9-1.3-2.4-1.4-3.2 0-1.3.1-1.3 1 0 .5.8 1 1 1 .5zm32.3 0c.1.5-1.4 1.1-3.3 1.3-3.3.2-3.4.2-1.5-1.3 2.1-1.7 4.5-1.7 4.8 0zm123.7-1.1c0 .3-.4.8-1 1.1-.5.3-1 .1-1-.4 0-.6.5-1.1 1-1.1.6 0 1 .2 1 .4zm-140.4 2.8c-1.2 2-2.2 2.3-3.1.8-.9-1.5.3-2.9 2.4-2.7 1.5.1 1.7.4.7 1.9zm-69.3 33.5c.8.7-1.1 3.3-2.4 3.3-.5 0-.9-.9-.9-2 0-1.9 2-2.7 3.3-1.3zm-4.3 18c-.1 1.8-1.8 3.5-2.4 2.4-.4-.6-.4-1.6-.1-2.1.7-1.2 2.5-1.3 2.5-.3zm-5 4.3c-.6 1.1-1.5 2-2 2-.6 0-1-.9-1-2 0-1.3.7-2 2-2 1.8 0 1.9.3 1 2zm85 19c0 .5-.4 1-1 1-.5 0-1-.5-1-1 0-.6.5-1 1-1 .6 0 1 .4 1 1zm-28 16.6c0 .8-.5 1.2-1 .9-.6-.4-.8-1.1-.5-1.6.9-1.4 1.5-1.1 1.5.7zm-40.9 27.5c-1.3 1.1-2.7 1.7-3 1.4-.3-.4.5-1.5 1.9-2.5 3.2-2.4 4.2-1.4 1.1 1.1zm-88.5 32c-3.6 7.4-6.5 12.9-6.5 12.3-.1-1.4 7.1-21 10.2-27.8l2.2-5 .3 3.5c.2 2.7-1.3 6.8-6.2 17zm441.7 197.6c-.7.2-1.9.2-2.5 0-.7-.3-.2-.5 1.2-.5s1.9.2 1.3.5zM624 591c1.3.8 1.3 1-.2 1-.9 0-2-.5-2.3-1-.8-1.3.5-1.3 2.5 0zm335 3c0 .5-.5 1-1.1 1-.5 0-.7-.5-.4-1 .3-.6.8-1 1.1-1 .2 0 .4.4.4 1zM621.2 731c-1.9 3.2-1.1 5 1.3 3 2-1.6 2.4-1.1 3.2 3.4.4 2.9.2 3.6-1.1 3.6-.9 0-1.6.5-1.6 1.1 0 .6.7.9 1.5.5.8-.3 1.5-.2 1.5.3s-.8 1.2-1.7 1.5c-3.1 1.1-8.8 4.5-7.8 4.6 1.6 0 3.5 5.3 2.8 8-.3 1.4-1.7 3.7-3.1 5.2-1.8 2-2.3 3.3-1.8 5.2.8 3.4-3.1 9.5-6.2 9.6h-2.3l2.1-2.8c2.5-3.4 1.8-6-1.8-6.9-2.7-.6-5.9.8-5.5 2.5.1.6-1.2 1-3 .9-1.7 0-3.9.2-4.8.6-2 1-4.3-3.5-2.7-5.1.8-.8.5-1.4-1.3-2.1l-2.4-1 2.3-.7c1.2-.3 2.2-1.4 2.2-2.5 0-2.1 3.8-8.9 6-10.6.8-.7 2.4-1.3 3.5-1.3 1.4 0 3-1.6 5-5 1.6-2.8 3.4-5 3.9-5 .6 0 .5-.5-.2-1.2-1.4-1.4.2-3.8 2.7-3.8 1.4 0 1.4.2.1 1-.8.5-1.2 1-1 1.2.3.2 1.5 1.2 2.7 2.2 2.2 1.8 2.2 1.8 3.4-.7 1-2.1.9-3-.2-4.4-1.2-1.4-1.2-1.6 0-.8 1.1.6 1.3.4.8-.9-.5-1.1-.3-1.5.5-1 .7.5.9.2.6-.8-.5-1.1-.1-1.4 1.7-1 2.2.4 2.2.5.7 3.2zm10.8 32.3c0 .8-.8 2.2-1.9 3.1-1.7 1.6-1.9 1.6-2.4-.6-.6-2.2.6-3.8 3.1-3.8.6 0 1.2.6 1.2 1.3zm-48 18.8c0 .5-.4.9-1 .9-.5 0-1-.7-1-1.6 0-.8.5-1.2 1-.9.6.3 1 1 1 1.6z"/><path d="M375.5 228.9c-.7 1.2 1.2 2.4 2.5 1.6 1.1-.7.4-2.5-1-2.5-.5 0-1.1.4-1.5.9zM381.8 231.7c.7.3 1.6.2 1.9-.1.4-.3-.2-.6-1.3-.5-1.1 0-1.4.3-.6.6zM390 233c0 .6.7 1 1.5 1s1.5-.2 1.5-.4-.7-.6-1.5-1c-.8-.3-1.5-.1-1.5.4zM390 237.1c-1.2.8-1 .9.7.4 2.1-.6 6.1 1 7.4 2.9.9 1.1 3.1-.3 2.4-1.5-.4-.5 0-.9.7-1 2.2-.2-3.5-1.7-6.7-1.8-1.6 0-3.7.4-4.5 1zM378.8 239.8c-1 .2-1.8.7-1.8 1.2 0 1.6 3.2 1.9 6.3.6l3.2-1.3-3-.4c-1.6-.3-3.8-.3-4.7-.1zM405.8 249.7c.7.3 1.6.2 1.9-.1.4-.3-.2-.6-1.3-.5-1.1 0-1.4.3-.6.6zM352 252.1c0 .5.5.7 1 .4.6-.3 1-.8 1-1.1 0-.2-.4-.4-1-.4-.5 0-1 .5-1 1.1zM295.5 253c-.3.5-.2 1 .4 1 .5 0 1.3-.5 1.6-1 .3-.6.2-1-.4-1-.5 0-1.3.4-1.6 1zM287.5 254.3c-.4 1-2 2.4-3.6 3.3-2.9 1.4-3.9 3.4-1.8 3.4 1.7 0 7.1-5.9 6.6-7.3-.3-.8-.7-.6-1.2.6zM396.3 261.2c-1.5 1.9-2.5 6.8-1.5 6.8.5 0 2.1-1.8 3.6-4 2.4-3.7 2.5-4 .7-4-1 0-2.3.6-2.8 1.2zM389.6 269.9c-.4.5.3.7 1.4.4 2.3-.6 2.6-1.3.6-1.3-.8 0-1.7.4-2 .9zM263.6 276c-1 1.7-1.6 3.3-1.3 3.6.6.7 3.9-4.5 3.5-5.7-.2-.5-1.2.4-2.2 2.1zM231.7 284.7c-.4.3-.7 1.1-.7 1.7 0 .6.5.5 1.2-.2.6-.6.9-1.4.7-1.7-.3-.3-.9-.2-1.2.2zM250.5 296c-.3.5-.1 1 .4 1 .6 0 1.1-.5 1.1-1 0-.6-.2-1-.4-1-.3 0-.8.4-1.1 1zM289.7 308.7c-1.2 1.2-.7 2.2.8 1.7.8-.4 1.5-1 1.5-1.5 0-1.1-1.4-1.2-2.3-.2zM293.7 314.7c-1.2 1.1-.8 2.3.7 2.3.7 0 1.9-.7 2.6-1.5 1-1.2.9-1.5-.7-1.5-1.1 0-2.3.3-2.6.7zM193.7 337.7c-1 .9-.9 2.3.2 2.3.5 0 1.1-.7 1.5-1.5.5-1.5-.5-2-1.7-.8zM620.8 739c-1.5.4-3 .5-3.4.1-.4-.3-.4-.1 0 .6.7 1.3 4.4.9 6-.7 1.1-1.1 1.1-1.1-2.6 0zM617.5 745c-.3.5.1 1 .9 1 .9 0 1.6-.5 1.6-1 0-.6-.4-1-.9-1-.6 0-1.3.4-1.6 1zM607.4 753.2c-1.1 1.7-1.3 5.8-.4 5.8.5 0 1.9-1 3-2.3 1.9-2 2-2.2.4-2.6-1.4-.2-1.4-.5-.3-1.2 1.1-.7 1.1-.9-.3-.9-.9 0-2 .5-2.4 1.2z"/></svg>